<mxfile host="app.diagrams.net" agent="Mozilla/5.0 (Windows NT 10.0; Win64; x64) AppleWebKit/537.36 (KHTML, like Gecko) Chrome/131.0.0.0 Safari/537.36" version="24.8.8">
  <diagram name="หน้า-1" id="4yE_YZneTAZk5iKF5z-X">
    <mxGraphModel dx="1050" dy="522" grid="1" gridSize="10" guides="1" tooltips="1" connect="1" arrows="1" fold="1" page="1" pageScale="1" pageWidth="827" pageHeight="1169" math="0" shadow="0">
      <root>
        <mxCell id="0" />
        <mxCell id="1" parent="0" />
        <mxCell id="UhjSe0Ne54QYWTfC9WIN-3" value="" style="edgeStyle=orthogonalEdgeStyle;rounded=0;orthogonalLoop=1;jettySize=auto;html=1;" edge="1" parent="1" source="UhjSe0Ne54QYWTfC9WIN-1" target="UhjSe0Ne54QYWTfC9WIN-2">
          <mxGeometry relative="1" as="geometry" />
        </mxCell>
        <mxCell id="UhjSe0Ne54QYWTfC9WIN-1" value="Start" style="strokeWidth=2;html=1;shape=mxgraph.flowchart.start_1;whiteSpace=wrap;" vertex="1" parent="1">
          <mxGeometry x="350" y="40" width="100" height="60" as="geometry" />
        </mxCell>
        <mxCell id="UhjSe0Ne54QYWTfC9WIN-5" value="" style="edgeStyle=orthogonalEdgeStyle;rounded=0;orthogonalLoop=1;jettySize=auto;html=1;" edge="1" parent="1" source="UhjSe0Ne54QYWTfC9WIN-2" target="UhjSe0Ne54QYWTfC9WIN-4">
          <mxGeometry relative="1" as="geometry" />
        </mxCell>
        <mxCell id="UhjSe0Ne54QYWTfC9WIN-2" value="นำโจทย์มาวิเคราะห์ความผิดพลาด" style="whiteSpace=wrap;html=1;strokeWidth=2;" vertex="1" parent="1">
          <mxGeometry x="340" y="140" width="120" height="60" as="geometry" />
        </mxCell>
        <mxCell id="UhjSe0Ne54QYWTfC9WIN-7" value="" style="edgeStyle=orthogonalEdgeStyle;rounded=0;orthogonalLoop=1;jettySize=auto;html=1;" edge="1" parent="1" source="UhjSe0Ne54QYWTfC9WIN-4" target="UhjSe0Ne54QYWTfC9WIN-6">
          <mxGeometry relative="1" as="geometry" />
        </mxCell>
        <mxCell id="UhjSe0Ne54QYWTfC9WIN-18" value="" style="edgeStyle=orthogonalEdgeStyle;rounded=0;orthogonalLoop=1;jettySize=auto;html=1;" edge="1" parent="1" source="UhjSe0Ne54QYWTfC9WIN-6" target="UhjSe0Ne54QYWTfC9WIN-17">
          <mxGeometry relative="1" as="geometry" />
        </mxCell>
        <mxCell id="UhjSe0Ne54QYWTfC9WIN-23" value="Y" style="edgeLabel;html=1;align=center;verticalAlign=middle;resizable=0;points=[];" vertex="1" connectable="0" parent="UhjSe0Ne54QYWTfC9WIN-18">
          <mxGeometry x="-0.3244" y="2" relative="1" as="geometry">
            <mxPoint as="offset" />
          </mxGeometry>
        </mxCell>
        <mxCell id="UhjSe0Ne54QYWTfC9WIN-6" value="แก้ไขข้อผิดพลาดครบแล้ว" style="rhombus;whiteSpace=wrap;html=1;strokeWidth=2;" vertex="1" parent="1">
          <mxGeometry x="310" y="360" width="180" height="80" as="geometry" />
        </mxCell>
        <mxCell id="UhjSe0Ne54QYWTfC9WIN-29" value="" style="edgeStyle=orthogonalEdgeStyle;rounded=0;orthogonalLoop=1;jettySize=auto;html=1;" edge="1" parent="1" source="UhjSe0Ne54QYWTfC9WIN-17" target="UhjSe0Ne54QYWTfC9WIN-28">
          <mxGeometry relative="1" as="geometry" />
        </mxCell>
        <mxCell id="UhjSe0Ne54QYWTfC9WIN-17" value="แสดงผล" style="whiteSpace=wrap;html=1;strokeWidth=2;" vertex="1" parent="1">
          <mxGeometry x="340" y="490" width="120" height="60" as="geometry" />
        </mxCell>
        <mxCell id="UhjSe0Ne54QYWTfC9WIN-20" value="" style="strokeWidth=2;html=1;shape=mxgraph.flowchart.annotation_1;align=left;pointerEvents=1;rotation=-180;" vertex="1" parent="1">
          <mxGeometry x="490" y="230" width="50" height="170" as="geometry" />
        </mxCell>
        <mxCell id="UhjSe0Ne54QYWTfC9WIN-24" value="N" style="edgeLabel;html=1;align=center;verticalAlign=middle;resizable=0;points=[];" vertex="1" connectable="0" parent="1">
          <mxGeometry x="515" y="380" as="geometry">
            <mxPoint x="-2" y="14" as="offset" />
          </mxGeometry>
        </mxCell>
        <mxCell id="UhjSe0Ne54QYWTfC9WIN-27" value="End" style="strokeWidth=2;html=1;shape=mxgraph.flowchart.start_1;whiteSpace=wrap;" vertex="1" parent="1">
          <mxGeometry x="350" y="700" width="100" height="60" as="geometry" />
        </mxCell>
        <mxCell id="UhjSe0Ne54QYWTfC9WIN-30" value="" style="edgeStyle=orthogonalEdgeStyle;rounded=0;orthogonalLoop=1;jettySize=auto;html=1;" edge="1" parent="1" source="UhjSe0Ne54QYWTfC9WIN-28" target="UhjSe0Ne54QYWTfC9WIN-27">
          <mxGeometry relative="1" as="geometry" />
        </mxCell>
        <mxCell id="UhjSe0Ne54QYWTfC9WIN-28" value="คืนค่าเริ่มต้น จบการทำงาน" style="whiteSpace=wrap;html=1;strokeWidth=2;" vertex="1" parent="1">
          <mxGeometry x="340" y="600" width="120" height="60" as="geometry" />
        </mxCell>
        <mxCell id="UhjSe0Ne54QYWTfC9WIN-31" value="" style="edgeStyle=orthogonalEdgeStyle;rounded=0;orthogonalLoop=1;jettySize=auto;html=1;exitX=1;exitY=1;exitDx=0;exitDy=0;exitPerimeter=0;" edge="1" parent="1" source="UhjSe0Ne54QYWTfC9WIN-20">
          <mxGeometry relative="1" as="geometry">
            <mxPoint x="490" y="280" as="sourcePoint" />
            <mxPoint x="410" y="230" as="targetPoint" />
            <Array as="points">
              <mxPoint x="490" y="230" />
            </Array>
          </mxGeometry>
        </mxCell>
        <mxCell id="UhjSe0Ne54QYWTfC9WIN-4" value="แก้ไขข้อผิดพลาด" style="whiteSpace=wrap;html=1;strokeWidth=2;" vertex="1" parent="1">
          <mxGeometry x="340" y="250" width="120" height="60" as="geometry" />
        </mxCell>
        <mxCell id="UhjSe0Ne54QYWTfC9WIN-32" style="edgeStyle=orthogonalEdgeStyle;rounded=0;orthogonalLoop=1;jettySize=auto;html=1;exitX=0.5;exitY=0;exitDx=0;exitDy=0;exitPerimeter=0;" edge="1" parent="1" source="UhjSe0Ne54QYWTfC9WIN-20" target="UhjSe0Ne54QYWTfC9WIN-20">
          <mxGeometry relative="1" as="geometry" />
        </mxCell>
      </root>
    </mxGraphModel>
  </diagram>
</mxfile>
